<svg width="31" height="27" viewBox="0 0 31 27" fill="none" xmlns="http://www.w3.org/2000/svg">
<path fill-rule="evenodd" clip-rule="evenodd" d="M0.705688 26.0559H11.7057V14.8699H5.85884C5.85884 13.7277 5.94142 12.5688 6.10659 11.3931C6.27176 10.2174 6.58557 9.15927 7.04803 8.2187C7.5105 7.27813 8.10508 6.52232 8.83181 5.95126C9.55855 5.3802 10.4835 5.09467 11.6066 5.09467V0.0559082C9.75673 0.0559082 8.13813 0.459005 6.75073 1.26521C5.36334 2.07142 4.22371 3.14634 3.33181 4.49002C2.43992 5.83369 1.77926 7.39569 1.34983 9.17606C0.920401 10.9564 0.705688 12.8543 0.705688 14.8699V26.0559ZM19.7057 26.0559H30.7057V14.8699H24.8588C24.8588 13.7277 24.9414 12.5688 25.1066 11.3931C25.2718 10.2174 25.5856 9.15927 26.048 8.2187C26.5105 7.27813 27.1051 6.52232 27.8318 5.95126C28.5585 5.3802 29.4835 5.09467 30.6066 5.09467V0.0559082C28.7567 0.0559082 27.1381 0.459005 25.7507 1.26521C24.3633 2.07142 23.2237 3.14634 22.3318 4.49002C21.4399 5.83369 20.7793 7.39569 20.3498 9.17606C19.9204 10.9564 19.7057 12.8543 19.7057 14.8699V26.0559Z" fill="#E2E2E2"/>
</svg>