<svg width="31" height="27" viewBox="0 0 31 27" fill="none" xmlns="http://www.w3.org/2000/svg">
<path fill-rule="evenodd" clip-rule="evenodd" d="M30.7056 26.0559H19.7056V14.8699H25.5524C25.5524 13.7277 25.4698 12.5688 25.3047 11.3931C25.1395 10.2174 24.8257 9.15927 24.3632 8.2187C23.9008 7.27813 23.3062 6.52232 22.5794 5.95126C21.8527 5.3802 20.9278 5.09467 19.8047 5.09467V0.0559082C21.6545 0.0559082 23.2731 0.459005 24.6605 1.26521C26.0479 2.07142 27.1875 3.14634 28.0794 4.49002C28.9713 5.83369 29.632 7.39569 30.0614 9.17606C30.4909 10.9564 30.7056 12.8543 30.7056 14.8699V26.0559ZM11.7056 26.0559H0.705566V14.8699H6.55241C6.55241 13.7277 6.46983 12.5688 6.30467 11.3931C6.1395 10.2174 5.82569 9.15927 5.36322 8.2187C4.90076 7.27813 4.30617 6.52232 3.57944 5.95126C2.85271 5.3802 1.92779 5.09467 0.804667 5.09467V0.0559082C2.65452 0.0559082 4.27313 0.459005 5.66052 1.26521C7.04792 2.07142 8.18754 3.14634 9.07944 4.49002C9.97134 5.83369 10.632 7.39569 11.0614 9.17606C11.4909 10.9564 11.7056 12.8543 11.7056 14.8699V26.0559Z" fill="#E2E2E2"/>
</svg>
