<svg width="22" height="21" viewBox="0 0 22 21" fill="none" xmlns="http://www.w3.org/2000/svg">
<path fill-rule="evenodd" clip-rule="evenodd" d="M21.9961 20.4236H13.572V12.034H18.0497C18.0497 11.1775 17.9864 10.3083 17.8599 9.42649C17.7334 8.5447 17.4931 7.75111 17.139 7.04568C16.7848 6.34025 16.3294 5.77339 15.7729 5.3451C15.2163 4.9168 14.508 4.70265 13.6479 4.70265V0.923584C15.0646 0.923584 16.3041 1.22591 17.3666 1.83056C18.4291 2.43521 19.3019 3.24141 19.9849 4.24917C20.668 5.25692 21.1739 6.42842 21.5028 7.7637C21.8317 9.09898 21.9961 10.5224 21.9961 12.034V20.4236ZM8.42424 20.4236H0.000133514V12.034H4.47781C4.47781 11.1775 4.41457 10.3083 4.28808 9.42649C4.16159 8.5447 3.92126 7.75111 3.5671 7.04568C3.21293 6.34025 2.75758 5.77339 2.20103 5.3451C1.64448 4.9168 0.93615 4.70265 0.0760269 4.70265V0.923584C1.4927 0.923584 2.73227 1.22591 3.79478 1.83056C4.85728 2.43521 5.73004 3.24141 6.41308 4.24917C7.09612 5.25692 7.60206 6.42842 7.93093 7.7637C8.2598 9.09898 8.42424 10.5224 8.42424 12.034V20.4236Z" fill="#E2E2E2"/>
</svg>
