<svg width="23" height="20" viewBox="0 0 23 20" fill="none" xmlns="http://www.w3.org/2000/svg">
<path opacity="0.879836" fill-rule="evenodd" clip-rule="evenodd" d="M0.817383 19.5969H8.49571V11.2074H4.41444C4.41444 10.3508 4.47208 9.48162 4.58737 8.59983C4.70266 7.71804 4.92171 6.92445 5.24453 6.21902C5.56734 5.51359 5.98238 4.94673 6.48966 4.51844C6.99694 4.09014 7.64256 3.87599 8.42654 3.87599V0.0969238C7.13528 0.0969238 6.00545 0.399246 5.037 1.0039C4.06856 1.60855 3.27307 2.41475 2.6505 3.42251C2.02793 4.43026 1.56677 5.60176 1.26701 6.93704C0.967259 8.27232 0.817383 9.69575 0.817383 11.2074V19.5969ZM14.4023 19.5969H22.0806V11.2074H17.9993C17.9993 10.3508 18.057 9.48162 18.1723 8.59983C18.2876 7.71804 18.5066 6.92445 18.8294 6.21902C19.1523 5.51359 19.5673 4.94673 20.0746 4.51844C20.5819 4.09014 21.2275 3.87599 22.0114 3.87599V0.0969238C20.7202 0.0969238 19.5904 0.399246 18.6219 1.0039C17.6535 1.60855 16.858 2.41475 16.2354 3.42251C15.6128 4.43026 15.1517 5.60176 14.8519 6.93704C14.5522 8.27232 14.4023 9.69575 14.4023 11.2074V19.5969Z" fill="#E2E2E2"/>
</svg>
